<?xml version="1.0" encoding="UTF-8" standalone="no"?>
<svg width="18px" height="19px" viewBox="0 0 18 19" version="1.1" xmlns="http://www.w3.org/2000/svg" xmlns:xlink="http://www.w3.org/1999/xlink" xmlns:sketch="http://www.bohemiancoding.com/sketch/ns">
    <!-- Generator: Sketch 3.1 (8751) - http://www.bohemiancoding.com/sketch -->
    <title>Group</title>
    <desc>Created with Sketch.</desc>
    <defs></defs>
    <g id="Page-1" stroke="none" stroke-width="1" fill="none" fill-rule="evenodd" sketch:type="MSPage">
        <g id="landing_1-1" sketch:type="MSArtboardGroup" transform="translate(-377.000000, -33.000000)">
            <g id="Group-2" sketch:type="MSLayerGroup" transform="translate(110.000000, 24.000000)">
                <g id="Buy-+-Group-2" transform="translate(267.000000, 7.000000)" sketch:type="MSShapeGroup">
                    <g id="Group" transform="translate(9.081340, 11.157895) scale(-1, 1) translate(-9.081340, -11.157895) translate(0.081340, 2.157895)">
                        <rect id="Rectangle-path" x="0" y="0" width="17.9425837" height="17.9425837"></rect>
                        <path d="M10.8671053,14.8555622 C10.0268541,14.8555622 9.34485646,15.5361244 9.34485646,16.3763756 C9.34485646,17.2168062 10.0270335,17.8977273 10.8671053,17.8977273 C11.7066388,17.8977273 12.3882775,17.2166268 12.3882775,16.3763756 C12.3882775,15.5361244 11.7066388,14.8555622 10.8671053,14.8555622 L10.8671053,14.8555622 Z" id="Shape" fill="#000000"></path>
                        <circle id="Oval" fill="#000000" cx="5.46854067" cy="16.4135167" r="1.52117225"></circle>
                        <path d="M17.0309211,0 L15.2967703,0 C14.9126196,0 14.5756579,0.182834928 14.4719498,0.552631579 L12.227512,8.43301435 L3.94037081,8.43301435 L2.1798445,4.48564593 L11.3126196,4.48564593 C11.7857656,4.48564593 12.1700957,4.15227273 12.1700957,3.67822967 C12.1700957,3.2041866 11.785945,2.8708134 11.312799,2.8708134 L0.864473684,2.8708134 C0.575777512,2.8708134 0.304844498,2.9194378 0.146770335,3.16148325 C-0.0116626794,3.40442584 -0.0366028708,3.66208134 0.0796650718,3.92673445 L2.59539474,9.59084928 C2.73247608,9.90179426 3.04072967,10.0478469 3.38038278,10.0478469 L11.7443182,10.0478469 L11.2604067,11.6626794 L4.45047847,11.6626794 C3.97733254,11.6626794 3.59300239,12.0855861 3.59300239,12.5598086 C3.59300239,13.0340311 3.97751196,13.4569378 4.45047847,13.4569378 L11.9097488,13.4569378 C12.2944378,13.4569378 12.6312201,13.2845096 12.7345694,12.9152512 L15.9468301,1.61483254 L17.0309211,1.61483254 C17.5046053,1.61483254 17.8889354,1.28092105 17.8889354,0.807416268 C17.8889354,0.333373206 17.5046053,0 17.0309211,0 L17.0309211,0 Z" id="Shape" fill="#000000"></path>
                    </g>
                </g>
            </g>
        </g>
    </g>
</svg>