<?xml version="1.0" encoding="UTF-8" standalone="no"?>
<svg width="100px" height="96px" viewBox="0 0 100 96" version="1.1" xmlns="http://www.w3.org/2000/svg" xmlns:xlink="http://www.w3.org/1999/xlink" xmlns:sketch="http://www.bohemiancoding.com/sketch/ns">
    <!-- Generator: Sketch 3.1 (8751) - http://www.bohemiancoding.com/sketch -->
    <title>conversion</title>
    <desc>Created with Sketch.</desc>
    <defs></defs>
    <g id="Page-1" stroke="none" stroke-width="1" fill="none" fill-rule="evenodd" sketch:type="MSPage">
        <g id="landing_1-2" sketch:type="MSArtboardGroup" transform="translate(-959.000000, -1453.000000)">
            <g id="conversion" sketch:type="MSLayerGroup" transform="translate(959.000000, 1454.000000)">
                <path d="M82.4489796,34.5347826 L99.7959184,34.5347826 C99.1836735,35.3521739 98.7755102,36.373913 97.9591837,37.1913043 L93.2653061,37.1913043 C93.6734694,38.0086957 94.2857143,38.826087 94.4897959,40.0521739 L99.5918367,40.0521739 C98.9795918,40.8695652 98.5714286,41.8913043 97.9591837,42.7086957 L94.6938776,42.7086957 C93.6734694,47 90.6122449,49.2478261 85.7142857,49.4521739 C85.7142857,49.8608696 85.9183673,50.0652174 86.122449,50.2695652 C88.9795918,53.7434783 92.0408163,57.626087 95.1020408,61.1 C95.3061224,61.3043478 95.5102041,61.7130435 95.5102041,62.1217391 L93.6734694,62.1217391 C93.0612245,62.1217391 92.244898,62.326087 91.8367347,62.1217391 C91.6326531,62.1217391 90.8163265,61.1 90.4081633,60.6913043 C87.755102,57.626087 85.5102041,54.7652174 82.8571429,51.4956522 C82.4489796,51.0869565 81.6326531,50.473913 81.6326531,50.0652174 C81.4285714,49.2478261 81.8367347,48.226087 81.6326531,47.6130435 C86.5306122,48.0217391 90.6122449,47 91.0204082,42.9130435 L80.6122449,42.9130435 C81.2244898,42.0956522 81.8367347,41.2782609 82.244898,40.2565217 L90.6122449,40.2565217 C89.7959184,38.826087 88.1632653,37.6 85.9183673,37.3956522 C84.2857143,37.1913043 82.4489796,37.3956522 80.8163265,37.3956522 C81.2244898,36.1695652 81.8367347,35.3521739 82.4489796,34.5347826 L82.4489796,34.5347826 Z" id="Shape" fill="#000000" sketch:type="MSShapeGroup"></path>
                <path d="M2.24489796,34.5347826 L19.5918367,34.5347826 C18.9795918,35.3521739 18.5714286,36.373913 17.755102,37.1913043 L13.0612245,37.1913043 C13.4693878,38.0086957 14.0816327,38.826087 14.2857143,40.0521739 L19.3877551,40.0521739 C18.7755102,40.8695652 18.3673469,41.8913043 17.755102,42.7086957 L14.4897959,42.7086957 C13.4693878,47 10.4081633,49.2478261 5.51020408,49.4521739 C5.51020408,49.8608696 5.71428571,50.0652174 5.91836735,50.2695652 C8.7755102,53.7434783 11.8367347,57.626087 14.8979592,61.1 C15.1020408,61.3043478 15.3061224,61.7130435 15.3061224,62.1217391 L13.4693878,62.1217391 C12.8571429,62.1217391 12.0408163,62.326087 11.6326531,62.1217391 C11.4285714,62.1217391 10.6122449,61.1 10.2040816,60.6913043 C7.55102041,57.626087 5.30612245,54.7652174 2.65306122,51.4956522 C2.24489796,51.0869565 1.42857143,50.473913 1.42857143,50.0652174 C1.2244898,49.2478261 1.63265306,48.226087 1.42857143,47.6130435 C6.32653061,48.0217391 10.4081633,47 10.8163265,42.9130435 L0.408163265,42.9130435 C1.02040816,42.0956522 1.63265306,41.2782609 2.04081633,40.2565217 L10.4081633,40.2565217 C9.59183673,38.826087 7.95918367,37.6 5.71428571,37.3956522 C4.08163265,37.1913043 2.24489796,37.3956522 0.612244898,37.3956522 C1.02040816,36.1695652 1.63265306,35.3521739 2.24489796,34.5347826 L2.24489796,34.5347826 Z" id="Shape" fill="#000000" sketch:type="MSShapeGroup"></path>
                <path d="M11.2244898,21.2521739 C18.1632653,12.6695652 28.1632653,7.35652174 38.9795918,6.33478261 C48.9795918,5.31304348 58.7755102,7.96956522 66.9387755,13.8956522 L61.8367347,20.2304348 C61.2244898,21.0478261 61.0204082,22.0695652 61.4285714,23.0913043 C61.8367347,24.1130435 62.6530612,24.726087 63.6734694,24.9304348 L86.3265306,28.6086957 L86.9387755,28.6086957 L86.9387755,28.6086957 C88.5714286,28.4043478 89.7959184,26.973913 89.5918367,25.3391304 C89.5918367,24.9304348 89.5918367,24.5217391 89.1836735,24.3173913 L81.2244898,3.26956522 C80.8163265,2.45217391 80,1.63478261 78.9795918,1.43043478 C77.9591837,1.22608696 76.9387755,1.63478261 76.3265306,2.45217391 L70.8163265,9.19565217 C61.4285714,2.45217391 50.2040816,-0.613043478 38.5714286,0.613043478 C26.122449,1.83913043 14.6938776,7.76521739 6.93877551,17.573913 C5.91836735,18.8 6.12244898,20.6391304 7.34693878,21.6608696 C8.7755102,22.6826087 10.2040816,22.4782609 11.2244898,21.2521739 L11.2244898,21.2521739 Z" id="Shape" stroke="#00CCFF" sketch:type="MSShapeGroup"></path>
                <path d="M89.1836735,73.3608696 C82.244898,81.7391304 72.244898,87.2565217 61.2244898,88.2782609 C51.2244898,89.3 41.4285714,86.6434783 33.2653061,80.7173913 L38.3673469,74.3826087 C38.9795918,73.5652174 39.1836735,72.5434783 38.7755102,71.5217391 C38.3673469,70.7043478 37.5510204,69.8869565 36.5306122,69.6826087 L13.877551,66.0043478 L13.2653061,66.0043478 L13.2653061,66.0043478 C11.6326531,66.2086957 10.4081633,67.6391304 10.6122449,69.273913 C10.6122449,69.6826087 10.6122449,70.0913043 11.0204082,70.2956522 L18.7755102,91.3434783 C19.1836735,92.1608696 20,92.9782609 21.0204082,93.1826087 C22.0408163,93.3869565 23.0612245,92.9782609 23.6734694,92.1608696 L29.1836735,85.4173913 C38.5714286,92.3652174 49.7959184,95.4304348 61.4285714,94.2043478 C73.877551,92.9782609 85.3061224,87.0521739 93.2653061,77.2434783 C94.2857143,76.0173913 94.0816327,74.1782609 92.8571429,73.1565217 C91.8367347,71.9304348 90.2040816,72.1347826 89.1836735,73.3608696 L89.1836735,73.3608696 Z" id="Shape" stroke="#00CCFF" sketch:type="MSShapeGroup"></path>
            </g>
        </g>
    </g>
</svg>