<?xml version="1.0" encoding="UTF-8" standalone="no"?>
<svg width="30px" height="19px" viewBox="0 0 30 19" version="1.1" xmlns="http://www.w3.org/2000/svg" xmlns:xlink="http://www.w3.org/1999/xlink" xmlns:sketch="http://www.bohemiancoding.com/sketch/ns">
    <!-- Generator: Sketch 3.1 (8751) - http://www.bohemiancoding.com/sketch -->
    <title>Shape</title>
    <desc>Created with Sketch.</desc>
    <defs></defs>
    <g id="Page-1" stroke="none" stroke-width="1" fill="none" fill-rule="evenodd" sketch:type="MSPage">
        <g id="landing_1-1" sketch:type="MSArtboardGroup" transform="translate(-586.000000, -33.000000)" fill="#000000">
            <g id="Group-2" sketch:type="MSLayerGroup" transform="translate(110.000000, 24.000000)">
                <g id="DEVELOPER-+-Shape" transform="translate(476.000000, 7.000000)" sketch:type="MSShapeGroup">
                    <g id="Shape" transform="translate(0.000000, 3.000000)">
                        <path d="M17.4173438,-0.0829326923 L10.8328125,17.9170673 L12.8177344,17.9170673 L19.4022656,-0.0829326923 L17.4173438,-0.0829326923 L17.4173438,-0.0829326923 Z M8.90648438,2.51322115 L8.39367188,2.83768269 L0.424921875,7.91460577 L7.10542736e-15,8.181375 L7.10542736e-15,9.16214423 L0.395625,9.44345192 L8.364375,14.9819135 L8.90648438,15.3497596 L8.90648438,13.0926058 L2.61492188,8.71514423 L8.90648438,4.70552885 L8.90648438,2.51322115 L8.90648438,2.51322115 Z M21.0939844,2.51322115 L21.0939844,4.70552885 L27.3855469,8.71514423 L21.0939844,13.0926058 L21.0939844,15.3497596 L21.6360937,14.9819135 L29.6048438,9.44345192 L30.0004687,9.16214423 L30.0004687,8.181375 L29.5755469,7.91460577 L21.6067969,2.83768269 L21.0939844,2.51322115 L21.0939844,2.51322115 Z"></path>
                    </g>
                </g>
            </g>
        </g>
    </g>
</svg>