<?xml version="1.0" encoding="UTF-8" standalone="no"?>
<svg width="60px" height="52px" viewBox="0 0 60 52" version="1.1" xmlns="http://www.w3.org/2000/svg" xmlns:xlink="http://www.w3.org/1999/xlink" xmlns:sketch="http://www.bohemiancoding.com/sketch/ns">
    <!-- Generator: Sketch 3.1 (8751) - http://www.bohemiancoding.com/sketch -->
    <title>Shape</title>
    <desc>Created with Sketch.</desc>
    <defs></defs>
    <g id="Page-1" stroke="none" stroke-width="1" fill="none" fill-rule="evenodd" sketch:type="MSPage">
        <g id="landing_1-2" sketch:type="MSArtboardGroup" transform="translate(-620.000000, -2037.000000)" fill="#F4D205">
            <g id="Rectangle-5-+-About-Us--|--Blog--|-2-+-Rectangle-5-+-Group-5" sketch:type="MSLayerGroup" transform="translate(0.000000, 1997.000000)">
                <g id="Rectangle-5-+-Group-4" sketch:type="MSShapeGroup">
                    <g id="Group-4" transform="translate(207.000000, 40.000000)">
                        <g id="Shape" transform="translate(413.000000, 0.000000)">
                            <path d="M25.9558442,38.8476593 C25.9558442,31.752093 20.1998315,26 13.0946328,26 L8.81298701,26 C8.81298701,16.4451733 16.4971013,8.66666667 25.9558442,8.66666667 L25.9558442,0 C11.7759584,0 0.241558442,11.66256 0.241558442,26 L0.241558442,39.1523407 C0.241558442,46.247907 5.9963361,52 13.0987013,52 L13.0987013,52 C20.1995052,52 25.9558442,46.2458873 25.9558442,39.1523407 L25.9558442,38.8476593 Z M59.6571429,38.8476593 C59.6571429,31.752093 53.9011302,26 46.7959315,26 L42.5142857,26 C42.5142857,16.4451733 50.1984,8.66666667 59.6571429,8.66666667 L59.6571429,0 C45.4772571,0 33.9428571,11.66256 33.9428571,26 L33.9428571,39.1523407 C33.9428571,46.247907 39.6976348,52 46.8,52 L46.8,52 C53.9008039,52 59.6571429,46.2458873 59.6571429,39.1523407 L59.6571429,38.8476593 Z"></path>
                        </g>
                    </g>
                </g>
            </g>
        </g>
    </g>
</svg>