<?xml version="1.0" encoding="UTF-8" standalone="no"?>
<svg width="25px" height="19px" viewBox="0 0 25 19" version="1.1" xmlns="http://www.w3.org/2000/svg" xmlns:xlink="http://www.w3.org/1999/xlink" xmlns:sketch="http://www.bohemiancoding.com/sketch/ns">
    <!-- Generator: Sketch 3.1 (8751) - http://www.bohemiancoding.com/sketch -->
    <title>Group</title>
    <desc>Created with Sketch.</desc>
    <defs></defs>
    <g id="Page-1" stroke="none" stroke-width="1" fill="none" fill-rule="evenodd" sketch:type="MSPage">
        <g id="landing_1-1" sketch:type="MSArtboardGroup" transform="translate(-476.000000, -33.000000)" fill="#000000">
            <g id="Group-2" sketch:type="MSLayerGroup" transform="translate(110.000000, 24.000000)">
                <g id="SELL-+-Group" transform="translate(367.000000, 7.000000)" sketch:type="MSShapeGroup">
                    <g id="Group" transform="translate(-0.387560, 2.918660)">
                        <path d="M0,1.77893811 L5.121531,0.0719318068 L18.778708,0.0719318068 L23.9,1.77893811 L0,1.77893811 L0,1.77893811 Z" id="Shape"></path>
                        <path d="M5.462823,9.6309759 L6.145646,8.94822118 L17.754115,8.94822118 L18.436938,9.6309759 L5.462823,9.6309759 L5.462823,9.6309759 Z" id="Shape"></path>
                        <path d="M9.901531,2.46169283 L7.17,2.46169283 L7.17,3.47638536 C7.481178,3.89411559 7.974474,4.16846015 8.535646,4.16846015 C9.096818,4.16846015 9.590353,3.89411559 9.901292,3.47638536 L9.901292,2.46169283 L9.901531,2.46169283 Z" id="Shape"></path>
                        <path d="M13.315885,2.46169283 L10.584354,2.46169283 L10.584354,3.47638536 C10.895532,3.89411559 11.388828,4.16846015 11.95,4.16846015 C12.511172,4.16846015 13.004468,3.89411559 13.315885,3.47638536 L13.315885,2.46169283 L13.315885,2.46169283 Z" id="Shape"></path>
                        <path d="M16.73,2.46169283 L13.998469,2.46169283 L13.998469,3.47638536 C14.309647,3.89411559 14.802943,4.16846015 15.364115,4.16846015 C15.925526,4.16846015 16.418822,3.89411559 16.73,3.47638536 L16.73,2.46169283 L16.73,2.46169283 Z" id="Shape"></path>
                        <path d="M6.487177,2.46169283 L3.755646,2.46169283 L3.755646,3.47638536 C4.066824,3.89411559 4.56012,4.16846015 5.121292,4.16846015 C5.682464,4.16846015 6.175999,3.89411559 6.486938,3.47638536 L6.486938,2.46169283 L6.487177,2.46169283 Z" id="Shape"></path>
                        <path d="M20.144354,2.46169283 L17.412823,2.46169283 L17.412823,3.47638536 C17.723762,3.89411559 18.217297,4.16846015 18.778469,4.16846015 C19.339641,4.16846015 19.833176,3.89411559 20.144354,3.47638536 L20.144354,2.46169283 L20.144354,2.46169283 Z" id="Shape"></path>
                        <path d="M23.558469,2.46169283 L20.827177,2.46169283 L20.827177,3.47638536 C21.138355,3.89411559 21.631651,4.16846015 22.193062,4.16846015 C22.754234,4.16846015 23.24753,3.89411559 23.558708,3.47638536 L23.558708,2.46169283 L23.558469,2.46169283 Z" id="Shape"></path>
                        <path d="M3.072823,2.46169283 L0.341531,2.46169283 L0.341531,3.47638536 C0.65247,3.89411559 1.146005,4.16846015 1.707177,4.16846015 C2.268349,4.16846015 2.761884,3.89411559 3.072823,3.47638536 L3.072823,2.46169283 L3.072823,2.46169283 Z" id="Shape"></path>
                        <path d="M20.485646,4.13261374 C20.381203,4.2389581 20.266961,4.33526547 20.144354,4.42105789 L20.144354,10.3137306 L3.755646,10.3137306 L3.755646,4.42129687 C3.633039,4.33550445 3.518558,4.23919708 3.414115,4.13285271 C3.218374,4.33263674 2.986544,4.49609639 2.731292,4.61773523 L2.731292,15.4349885 L2.731292,16.1177432 L2.731292,17.4832527 L3.755646,17.4832527 L3.982935,16.1177432 L19.916348,16.1177432 L20.144115,17.4832527 L21.16823,17.4832527 L21.16823,16.1177432 L21.16823,15.4349885 L21.16823,4.61773523 C20.913217,4.49585741 20.681387,4.33239776 20.485646,4.13261374 L20.485646,4.13261374 Z" id="Shape"></path>
                    </g>
                </g>
            </g>
        </g>
    </g>
</svg>