<?xml version="1.0" encoding="UTF-8" standalone="no"?>
<svg width="28px" height="48px" viewBox="0 0 28 48" version="1.1" xmlns="http://www.w3.org/2000/svg" xmlns:xlink="http://www.w3.org/1999/xlink" xmlns:sketch="http://www.bohemiancoding.com/sketch/ns">
    <!-- Generator: Sketch 3.1 (8751) - http://www.bohemiancoding.com/sketch -->
    <title>sign up </title>
    <desc>Created with Sketch.</desc>
    <defs></defs>
    <g id="Page-1" stroke="none" stroke-width="1" fill="none" fill-rule="evenodd" sketch:type="MSPage">
        <g id="landing_1-1" sketch:type="MSArtboardGroup" transform="translate(-117.000000, -1639.000000)">
            <g id="sign-up-" sketch:type="MSLayerGroup" transform="translate(118.000000, 1640.000000)">
                <path d="M23.5719577,0.195744681 L2.62751323,0.195744681 C1.23121693,0.195744681 0.0343915344,1.37021277 0.0343915344,2.74042553 L0.0343915344,43.6510638 C0.0343915344,45.0212766 1.23121693,46.1957447 2.62751323,46.1957447 L23.5719577,46.1957447 C24.968254,46.1957447 26.1650794,45.0212766 26.1650794,43.6510638 L26.1650794,2.74042553 C26.0653439,1.37021277 24.968254,0.195744681 23.5719577,0.195744681 L23.5719577,0.195744681 Z M10.6063492,2.15319149 L15.5931217,2.15319149 C15.7925926,2.15319149 15.892328,2.25106383 15.892328,2.44680851 C15.892328,2.64255319 15.7925926,2.74042553 15.5931217,2.74042553 L10.6063492,2.74042553 C10.4068783,2.74042553 10.3071429,2.64255319 10.3071429,2.44680851 C10.3071429,2.25106383 10.4068783,2.15319149 10.6063492,2.15319149 L10.6063492,2.15319149 Z M13.0997354,44.2382979 C12.2021164,44.2382979 11.6037037,43.5531915 11.6037037,42.7702128 C11.6037037,41.987234 12.3018519,41.3021277 13.0997354,41.3021277 C13.897619,41.3021277 14.5957672,41.987234 14.5957672,42.7702128 C14.5957672,43.5531915 13.9973545,44.2382979 13.0997354,44.2382979 L13.0997354,44.2382979 Z M23.6716931,39.3446809 L2.42804233,39.3446809 L2.42804233,4.6 L23.6716931,4.6 L23.6716931,39.3446809 L23.6716931,39.3446809 Z" id="Shape" stroke="#000000" stroke-width="0.5" sketch:type="MSShapeGroup"></path>
                <g id="Group" transform="translate(6.517196, 7.829787)" sketch:type="MSShapeGroup">
                    <path d="M13.5640212,1.66382979 C13.4642857,1.27234043 13.0653439,1.07659574 12.6664021,1.07659574 L12.6664021,1.07659574 C12.3671958,1.07659574 12.1677249,1.17446809 11.968254,1.37021277 C11.7687831,1.17446809 11.5693122,1.07659574 11.2701058,1.07659574 L11.2701058,1.07659574 C11.0706349,1.07659574 10.871164,1.17446809 10.6716931,1.27234043 L10.6716931,1.17446809 C10.6716931,1.07659574 10.5719577,1.07659574 10.5719577,1.07659574 L9.97354497,1.07659574 C9.87380952,1.07659574 9.87380952,1.17446809 9.87380952,1.17446809 L9.87380952,1.95744681 L9.87380952,2.44680851 L9.87380952,2.83829787 L9.87380952,3.03404255 L9.87380952,4.6 C9.87380952,4.69787234 9.97354497,4.69787234 9.97354497,4.69787234 L10.5719577,4.69787234 C10.6716931,4.69787234 10.6716931,4.6 10.6716931,4.6 L10.6716931,2.64255319 L10.6716931,2.54468085 L10.6716931,2.25106383 L10.6716931,2.25106383 C10.6716931,2.15319149 10.7714286,2.05531915 10.871164,2.05531915 L10.871164,2.05531915 L10.9708995,2.05531915 C11.0706349,2.05531915 11.0706349,2.05531915 11.0706349,2.15319149 C11.1703704,2.15319149 11.1703704,2.25106383 11.1703704,2.34893617 L11.1703704,2.74042553 L11.1703704,4.6 L11.1703704,4.69787234 C11.1703704,4.79574468 11.2701058,4.79574468 11.2701058,4.79574468 L11.8685185,4.79574468 C11.968254,4.79574468 11.968254,4.69787234 11.968254,4.69787234 L11.968254,2.83829787 L11.968254,2.74042553 L11.968254,2.34893617 C11.968254,2.25106383 11.968254,2.15319149 12.0679894,2.15319149 L12.1677249,2.15319149 L12.1677249,2.15319149 L12.2674603,2.15319149 C12.3671958,2.15319149 12.4669312,2.25106383 12.4669312,2.34893617 L12.4669312,2.74042553 L12.4669312,2.83829787 L12.4669312,4.69787234 C12.4669312,4.79574468 12.5666667,4.79574468 12.5666667,4.79574468 L13.1650794,4.79574468 C13.2648148,4.79574468 13.2648148,4.69787234 13.2648148,4.69787234 L13.2648148,3.6212766 L13.2648148,3.32765957 L13.2648148,2.83829787 L13.2648148,2.15319149 C13.5640212,1.76170213 13.5640212,1.76170213 13.5640212,1.66382979 L13.5640212,1.66382979 L13.5640212,1.66382979 Z" id="Shape" fill="#00B8F1"></path>
                    <path d="M9.27539683,1.07659574 L8.97619048,1.07659574 L8.87645503,1.07659574 L8.87645503,0.489361702 L8.87645503,0.489361702 C8.87645503,0.391489362 8.77671958,0.391489362 8.77671958,0.391489362 L8.77671958,0.391489362 C8.37777778,0.489361702 8.47751323,1.07659574 7.77936508,1.07659574 L7.77936508,1.07659574 L7.67962963,1.07659574 L7.67962963,1.07659574 L7.67962963,1.07659574 C7.57989418,1.07659574 7.57989418,1.17446809 7.57989418,1.17446809 L7.57989418,1.76170213 C7.57989418,1.85957447 7.67962963,1.85957447 7.67962963,1.85957447 L7.77936508,1.85957447 L8.07857143,1.85957447 L8.07857143,3.03404255 L8.07857143,3.52340426 L8.07857143,3.6212766 L8.07857143,3.6212766 L8.07857143,4.40425532 C8.07857143,4.50212766 8.17830688,4.50212766 8.17830688,4.50212766 L8.77671958,4.50212766 C8.87645503,4.50212766 8.87645503,4.40425532 8.87645503,4.40425532 L8.87645503,3.81702128 L8.87645503,3.42553191 L8.87645503,2.93617021 L8.87645503,1.95744681 L8.97619048,1.95744681 L9.27539683,1.95744681 C9.37513228,1.95744681 9.37513228,1.85957447 9.37513228,1.85957447 L9.37513228,1.27234043 C9.47486772,1.17446809 9.37513228,1.07659574 9.27539683,1.07659574 L9.27539683,1.07659574 L9.27539683,1.07659574 Z" id="Shape" fill="#00B8F1"></path>
                    <path d="M7.08121693,1.07659574 L6.48280423,1.07659574 C6.38306878,1.07659574 6.38306878,1.17446809 6.38306878,1.17446809 L6.38306878,1.46808511 L6.38306878,1.85957447 L6.38306878,1.85957447 L6.38306878,2.25106383 L6.38306878,2.25106383 L6.38306878,2.34893617 C6.38306878,2.44680851 6.28333333,2.44680851 6.28333333,2.44680851 L5.98412698,2.44680851 C5.88439153,2.44680851 5.88439153,2.34893617 5.88439153,2.34893617 L5.88439153,1.95744681 L5.88439153,1.56595745 L5.88439153,1.27234043 C5.88439153,1.17446809 5.78465608,1.17446809 5.78465608,1.17446809 L5.18624339,1.17446809 C5.08650794,1.17446809 5.08650794,1.27234043 5.08650794,1.27234043 L5.08650794,1.56595745 L5.08650794,1.85957447 L5.08650794,2.64255319 C5.08650794,3.13191489 5.48544974,3.52340426 5.98412698,3.52340426 L6.18359788,3.52340426 L6.28333333,3.52340426 L6.38306878,3.52340426 L6.38306878,3.52340426 C6.48280423,3.52340426 6.48280423,3.6212766 6.48280423,3.6212766 C6.48280423,3.71914894 6.38306878,3.71914894 6.38306878,3.71914894 L6.38306878,3.71914894 L6.18359788,3.71914894 L5.48544974,3.71914894 C5.38571429,3.71914894 5.38571429,3.81702128 5.38571429,3.81702128 L5.38571429,4.40425532 C5.38571429,4.50212766 5.48544974,4.50212766 5.48544974,4.50212766 L6.18359788,4.50212766 L6.28333333,4.50212766 L6.48280423,4.50212766 C6.98148148,4.50212766 7.38042328,4.1106383 7.38042328,3.6212766 L7.38042328,2.83829787 L7.38042328,2.54468085 L7.38042328,2.44680851 L7.38042328,2.25106383 L7.38042328,1.66382979 L7.38042328,1.37021277 L7.38042328,1.07659574 C7.18095238,1.17446809 7.08121693,1.07659574 7.08121693,1.07659574 L7.08121693,1.07659574 L7.08121693,1.07659574 Z" id="Shape" fill="#002E6E"></path>
                    <path d="M0.997354497,2.15319149 L0.997354497,2.44680851 L0.997354497,2.54468085 C0.997354497,2.64255319 0.897619048,2.64255319 0.897619048,2.64255319 L0.797883598,2.64255319 L0.797883598,2.64255319 L0.498677249,2.64255319 L0.498677249,1.95744681 L0.698148148,1.95744681 L0.797883598,1.95744681 L0.897619048,1.95744681 C0.897619048,1.95744681 0.997354497,2.05531915 0.997354497,2.15319149 L0.997354497,2.15319149 L0.997354497,2.15319149 Z M1.09708995,1.07659574 L0.398941799,1.07659574 L0.398941799,1.07659574 L-0.199470899,1.07659574 C-0.299206349,1.07659574 -0.299206349,1.17446809 -0.299206349,1.17446809 L-0.299206349,1.76170213 L-0.299206349,1.76170213 L-0.299206349,3.71914894 L-0.299206349,4.50212766 C-0.299206349,4.6 -0.199470899,4.6 -0.199470899,4.6 L-0.199470899,4.6 L0.0997354497,4.6 L0.398941799,4.6 C0.498677249,4.6 0.498677249,4.50212766 0.498677249,4.50212766 L0.498677249,3.52340426 L1.09708995,3.52340426 C1.5957672,3.52340426 1.99470899,3.22978723 1.99470899,2.64255319 L1.99470899,1.76170213 C1.89497354,1.37021277 1.5957672,1.07659574 1.09708995,1.07659574 L1.09708995,1.07659574 L1.09708995,1.07659574 Z" id="Shape" fill="#002E6E"></path>
                    <path d="M3.59047619,3.6212766 L3.59047619,3.6212766 L3.59047619,3.71914894 L3.59047619,3.71914894 C3.59047619,3.81702128 3.49074074,3.81702128 3.49074074,3.81702128 L3.19153439,3.81702128 C3.09179894,3.81702128 3.09179894,3.71914894 3.09179894,3.71914894 L3.09179894,3.6212766 L3.09179894,3.6212766 L3.09179894,3.32765957 L3.09179894,3.32765957 L3.09179894,3.32765957 L3.09179894,3.22978723 C3.09179894,3.13191489 3.19153439,3.13191489 3.19153439,3.13191489 L3.49074074,3.13191489 C3.59047619,3.13191489 3.59047619,3.22978723 3.59047619,3.22978723 L3.59047619,3.6212766 L3.59047619,3.6212766 Z M3.49074074,1.07659574 L2.99206349,1.07659574 L2.89232804,1.07659574 L2.79259259,1.07659574 L2.59312169,1.07659574 C2.49338624,1.07659574 2.49338624,1.17446809 2.49338624,1.17446809 L2.49338624,1.37021277 L2.49338624,1.37021277 L2.49338624,1.66382979 C2.49338624,1.76170213 2.59312169,1.76170213 2.59312169,1.76170213 L2.89232804,1.76170213 L2.89232804,1.76170213 L2.99206349,1.76170213 L3.39100529,1.76170213 L3.49074074,1.76170213 C3.59047619,1.76170213 3.59047619,1.85957447 3.59047619,1.85957447 L3.59047619,1.95744681 C3.59047619,2.05531915 3.49074074,2.05531915 3.49074074,2.05531915 L3.09179894,2.05531915 C2.59312169,2.05531915 2.19417989,2.44680851 2.19417989,2.93617021 L2.19417989,3.6212766 C2.19417989,4.1106383 2.49338624,4.50212766 3.09179894,4.50212766 L3.88968254,4.50212766 L3.88968254,4.50212766 L4.18888889,4.50212766 C4.38835979,4.50212766 4.58783069,4.30638298 4.58783069,4.20851064 L4.58783069,3.71914894 L4.58783069,3.52340426 L4.58783069,2.64255319 L4.58783069,2.15319149 L4.58783069,1.95744681 C4.48809524,1.46808511 4.18888889,1.07659574 3.49074074,1.07659574 L3.49074074,1.07659574 L3.49074074,1.07659574 Z" id="Shape" fill="#002E6E"></path>
                </g>
                <g id="Group" transform="translate(6.517196, 18.595745)" sketch:type="MSShapeGroup">
                    <path d="M6.78201058,-0.391489362 C2.89232804,-0.391489362 -0.299206349,2.74042553 -0.299206349,6.55744681 C-0.299206349,10.3744681 2.89232804,13.506383 6.78201058,13.506383 C10.6716931,13.506383 13.8632275,10.3744681 13.8632275,6.55744681 C13.8632275,2.74042553 10.5719577,-0.391489362 6.78201058,-0.391489362 L6.78201058,-0.391489362 Z" id="Shape" stroke="#000000"></path>
                    <path d="M9.37513228,3.91489362 L5.98412698,7.92765957 L3.98941799,5.87234043 C3.78994709,5.67659574 3.49074074,5.67659574 3.29126984,5.87234043 C3.09179894,6.06808511 3.09179894,6.36170213 3.29126984,6.55744681 L5.68492063,9.10212766 C5.78465608,9.2 5.88439153,9.29787234 6.08386243,9.29787234 L6.08386243,9.29787234 C6.18359788,9.29787234 6.38306878,9.2 6.48280423,9.10212766 L10.2727513,4.69787234 C10.4722222,4.50212766 10.4722222,4.20851064 10.1730159,4.01276596 C9.87380952,3.71914894 9.57460317,3.71914894 9.37513228,3.91489362 L9.37513228,3.91489362 Z" id="Shape" fill="#000000"></path>
                </g>
            </g>
        </g>
    </g>
</svg>