<?xml version="1.0" encoding="UTF-8" standalone="no"?>
<svg width="47px" height="41px" viewBox="0 0 47 41" version="1.1" xmlns="http://www.w3.org/2000/svg" xmlns:xlink="http://www.w3.org/1999/xlink" xmlns:sketch="http://www.bohemiancoding.com/sketch/ns">
    <!-- Generator: Sketch 3.1 (8751) - http://www.bohemiancoding.com/sketch -->
    <title>paytm wallet</title>
    <desc>Created with Sketch.</desc>
    <defs></defs>
    <g id="Page-1" stroke="none" stroke-width="1" fill="none" fill-rule="evenodd" sketch:type="MSPage">
        <g id="landing_1-1" sketch:type="MSArtboardGroup" transform="translate(-110.000000, -1812.000000)">
            <g id="paytm-wallet" sketch:type="MSLayerGroup" transform="translate(111.000000, 1813.000000)">
                <path d="M36.2560903,39.2212185 L3.45751634,39.2212185 C1.54426619,39.2212185 0.0409982175,37.6890756 0.0409982175,35.7390756 L0.0409982175,3.70336134 C0.0409982175,1.75336134 1.54426619,0.221218487 3.45751634,0.221218487 L36.1194296,0.221218487 C40.6292335,0.221218487 44.3190731,3.98193277 44.3190731,8.57836134 L44.3190731,30.7247899 C44.4557338,35.4605042 40.7658942,39.2212185 36.2560903,39.2212185 L36.2560903,39.2212185 Z" id="Shape" stroke="#676767" stroke-width="0.75" sketch:type="MSShapeGroup"></path>
                <path d="M35.0261438,37.6890756 L5.23410576,37.6890756 C3.32085561,37.6890756 1.81758764,36.1569328 1.81758764,34.2069328 L1.81758764,4.81764706 C1.81758764,2.86764706 3.32085561,1.3355042 5.23410576,1.3355042 L35.0261438,1.3355042 C39.2626263,1.3355042 42.8158051,4.81764706 42.8158051,9.27478992 L42.8158051,29.7497899 C42.8158051,34.2069328 39.2626263,37.6890756 35.0261438,37.6890756 L35.0261438,37.6890756 Z" id="Shape" stroke="#676767" stroke-width="0.75" sketch:type="MSShapeGroup"></path>
                <path d="M45.9590018,12.3390756 L45.9590018,24.5962185 C45.9590018,24.5962185 45.4123589,24.7355042 44.7290553,24.7355042 L28.0564468,24.7355042 C26.4165181,24.7355042 25.0499109,23.3426471 25.0499109,21.6712185 L25.0499109,15.4033613 C25.0499109,13.7319328 26.4165181,12.3390756 28.0564468,12.3390756 L45.6856803,12.3390756 L45.9590018,12.3390756 L45.9590018,12.3390756 Z" id="Shape" fill="#00CCFF" sketch:type="MSShapeGroup"></path>
                <ellipse id="Oval" fill="#FFFFFF" sketch:type="MSShapeGroup" cx="31.6096257" cy="18.7462185" rx="2.45989305" ry="2.50714286"></ellipse>
                <ellipse id="Oval" sketch:type="MSShapeGroup" cx="31.8829471" cy="19.0247899" rx="2.7332145" ry="2.78571429"></ellipse>
            </g>
        </g>
    </g>
</svg>