<?xml version="1.0" encoding="UTF-8" standalone="no"?>
<svg width="87px" height="61px" viewBox="0 0 87 61" version="1.1" xmlns="http://www.w3.org/2000/svg" xmlns:xlink="http://www.w3.org/1999/xlink" xmlns:sketch="http://www.bohemiancoding.com/sketch/ns">
    <!-- Generator: Sketch 3.1 (8751) - http://www.bohemiancoding.com/sketch -->
    <title>dashboard</title>
    <desc>Created with Sketch.</desc>
    <defs></defs>
    <g id="Page-1" stroke="none" stroke-width="1" fill="none" fill-rule="evenodd" sketch:type="MSPage">
        <g id="landing_1-2" sketch:type="MSArtboardGroup" transform="translate(-563.000000, -1481.000000)" fill="#000000">
            <g id="dashboard" sketch:type="MSLayerGroup" transform="translate(563.000000, 1481.000000)">
                <path d="M86,10 L1,10 C0.448,10 0,9.552 0,9 L0,1 C0,0.448 0.448,0 1,0 L86,0 C86.553,0 87,0.448 87,1 L87,9 C87,9.552 86.553,10 86,10 L86,10 Z M2,8 L85,8 L85,2 L2,2 L2,8 L2,8 Z" id="Shape" sketch:type="MSShapeGroup"></path>
                <path d="M86,61 L1,61 C0.448,61 0,60.553 0,60 L0,9 C0,8.448 0.448,8 1,8 L86,8 C86.553,8 87,8.448 87,9 L87,60 C87,60.553 86.553,61 86,61 L86,61 Z M2,59 L85,59 L85,10 L2,10 L2,59 L2,59 Z" id="Shape" sketch:type="MSShapeGroup"></path>
                <circle id="Oval" sketch:type="MSShapeGroup" cx="73.5" cy="5.5" r="1.5"></circle>
                <circle id="Oval" sketch:type="MSShapeGroup" cx="77.5" cy="5.5" r="1.5"></circle>
                <circle id="Oval" sketch:type="MSShapeGroup" cx="81.5" cy="5.5" r="1.5"></circle>
                <path d="M20,61 L1,61 C0.448,61 0,60.553 0,60 L0,9 C0,8.448 0.448,8 1,8 L20,8 C20.552,8 21,8.448 21,9 L21,60 C21,60.553 20.552,61 20,61 L20,61 Z M2,59 L19,59 L19,10 L2,10 L2,59 L2,59 Z" id="Shape" sketch:type="MSShapeGroup"></path>
                <path d="M14,24 L6,24 C5.448,24 5,23.552 5,23 L5,16 C5,15.448 5.448,15 6,15 L14,15 C14.552,15 15,15.448 15,16 L15,23 C15,23.552 14.552,24 14,24 L14,24 Z M7,22 L13,22 L13,17 L7,17 L7,22 L7,22 Z" id="Shape" sketch:type="MSShapeGroup"></path>
                <path d="M14,37 L6,37 C5.448,37 5,36.553 5,36 L5,29 C5,28.448 5.448,28 6,28 L14,28 C14.552,28 15,28.448 15,29 L15,36 C15,36.553 14.552,37 14,37 L14,37 Z M7,35 L13,35 L13,30 L7,30 L7,35 L7,35 Z" id="Shape" sketch:type="MSShapeGroup"></path>
                <path d="M14,50 L6,50 C5.448,50 5,49.553 5,49 L5,42 C5,41.447 5.448,41 6,41 L14,41 C14.552,41 15,41.447 15,42 L15,49 C15,49.553 14.552,50 14,50 L14,50 Z M7,48 L13,48 L13,43 L7,43 L7,48 L7,48 Z" id="Shape" sketch:type="MSShapeGroup"></path>
                <path d="M79,30 L28,30 C27.448,30 27,29.552 27,29 L27,16 C27,15.448 27.448,15 28,15 L79,15 C79.553,15 80,15.448 80,16 L80,29 C80,29.552 79.553,30 79,30 L79,30 Z M29,28 L78,28 L78,17 L29,17 L29,28 L29,28 Z" id="Shape" sketch:type="MSShapeGroup"></path>
                <path d="M79,50 L28,50 C27.448,50 27,49.553 27,49 L27,36 C27,35.447 27.448,35 28,35 L79,35 C79.553,35 80,35.447 80,36 L80,49 C80,49.553 79.553,50 79,50 L79,50 Z M29,48 L78,48 L78,37 L29,37 L29,48 L29,48 Z" id="Shape" sketch:type="MSShapeGroup"></path>
                <path d="M58,24 L37,24 C36.448,24 36,23.552 36,23 C36,22.448 36.448,22 37,22 L58,22 C58.553,22 59,22.448 59,23 C59,23.552 58.553,24 58,24 L58,24 Z" id="Shape" sketch:type="MSShapeGroup"></path>
                <path d="M68,24 L64,24 C63.447,24 63,23.552 63,23 C63,22.448 63.447,22 64,22 L68,22 C68.553,22 69,22.448 69,23 C69,23.552 68.553,24 68,24 L68,24 Z" id="Shape" sketch:type="MSShapeGroup"></path>
                <path d="M56,44 L35,44 C34.448,44 34,43.553 34,43 C34,42.447 34.448,42 35,42 L56,42 C56.553,42 57,42.447 57,43 C57,43.553 56.553,44 56,44 L56,44 Z" id="Shape" sketch:type="MSShapeGroup"></path>
                <path d="M66,44 L62,44 C61.447,44 61,43.553 61,43 C61,42.447 61.447,42 62,42 L66,42 C66.553,42 67,42.447 67,43 C67,43.553 66.553,44 66,44 L66,44 Z" id="Shape" sketch:type="MSShapeGroup"></path>
            </g>
        </g>
    </g>
</svg>