<?xml version="1.0" encoding="UTF-8" standalone="no"?>
<svg width="41px" height="35px" viewBox="0 0 41 35" version="1.1" xmlns="http://www.w3.org/2000/svg" xmlns:xlink="http://www.w3.org/1999/xlink" xmlns:sketch="http://www.bohemiancoding.com/sketch/ns">
    <!-- Generator: Sketch 3.1 (8751) - http://www.bohemiancoding.com/sketch -->
    <title>done</title>
    <desc>Created with Sketch.</desc>
    <defs></defs>
    <g id="Page-1" stroke="none" stroke-width="1" fill="none" fill-rule="evenodd" sketch:type="MSPage">
        <g id="landing_1-1" sketch:type="MSArtboardGroup" transform="translate(-114.000000, -2042.000000)">
            <g id="done" sketch:type="MSLayerGroup" transform="translate(115.000000, 2043.000000)">
                <g id="done_2_" stroke="#000000" stroke-width="0.75" sketch:type="MSShapeGroup">
                    <path d="M31.3684211,21.183871 C30.5263158,21.183871 29.8947368,21.8225806 29.8947368,22.6741935 L29.8947368,29.9129032 L2.94736842,29.9129032 L2.94736842,2.66129032 L20.5263158,2.66129032 C21.3684211,2.66129032 22,2.02258065 22,1.17096774 C22,0.319354839 21.3684211,-0.319354839 20.5263158,-0.319354839 L0,-0.319354839 L0,32.7870968 L32.7368421,32.7870968 L32.7368421,22.6741935 C32.8421053,21.8225806 32.2105263,21.183871 31.3684211,21.183871 L31.3684211,21.183871 Z" id="Shape"></path>
                </g>
                <path d="M20.1052632,21.716129 L11.3684211,12.4548387 L14.1052632,9.9 L20.4210526,16.5 L37.5789474,1.06451613 L40,3.72580645 L20.1052632,21.716129 Z" id="Shape" fill="#00CCFF" sketch:type="MSShapeGroup"></path>
            </g>
        </g>
    </g>
</svg>