<?xml version="1.0" encoding="UTF-8" standalone="no"?>
<svg width="100px" height="92px" viewBox="0 0 100 92" version="1.1" xmlns="http://www.w3.org/2000/svg" xmlns:xlink="http://www.w3.org/1999/xlink" xmlns:sketch="http://www.bohemiancoding.com/sketch/ns">
    <!-- Generator: Sketch 3.1 (8751) - http://www.bohemiancoding.com/sketch -->
    <title>simple payment</title>
    <desc>Created with Sketch.</desc>
    <defs></defs>
    <g id="Page-1" stroke="none" stroke-width="1" fill="none" fill-rule="evenodd" sketch:type="MSPage">
        <g id="landing_1-2" sketch:type="MSArtboardGroup" transform="translate(-124.000000, -1472.000000)">
            <g id="simple-payment" sketch:type="MSLayerGroup" transform="translate(124.000000, 1472.000000)">
                <path d="M45.5,75.25 L7.25,75.25 L7.25,10.75 L45.5,10.75 L45.5,14.5 L51.75,14.5 L51.75,8 C51.75,5.75 50,4 47.75,4 L5,4 C2.75,4 1,5.75 1,8 L1,87 C1,89.25 2.75,91 5,91 L47.75,91 C50,91 51.75,89.25 51.75,87 L51.75,52.5 L45.5,52.5 L45.5,75.25 L45.5,75.25 Z M26.25,87.25 C24,87.25 22,85.5 22,83 C22,80.75 23.75,78.75 26.25,78.75 C28.5,78.75 30.5,80.5 30.5,83 C30.5,85.25 28.5,87.25 26.25,87.25 L26.25,87.25 Z" id="Shape" stroke="#000000" stroke-width="0.75" sketch:type="MSShapeGroup"></path>
                <g id="Group" transform="translate(20.000000, 0.000000)" sketch:type="MSShapeGroup">
                    <path d="M39.25,46.5 L45,49 C47,46 51.25,46.25 51.25,46.25 L61.5,16.5 C57,13.75 58.75,10.5 58.75,10.5 L48.5,6.75 C48.5,10.25 42.5,9 42.5,9 L36,29.5 C36,29.5 35.25,30 36.25,30.25 C36.75,30.5 38,30.75 40,30.75 C40,30.75 47.25,28.25 47.25,34.5 C47.25,34.5 48.25,40 43.5,40.5 C43.5,40.5 36.5,40.5 34.25,43.5 C31.75,46.5 31.75,50.25 31.75,50.25 C31.75,50.25 30.25,51.75 25.75,51.5 C25.75,51.5 16.25,51.75 8.25,57.75 L1,40.75 C1,40.75 11.75,36.5 14,33 L30.25,15 C30.25,15 31.75,13.75 34.5,14 L37.25,14 L37.75,12.5 L41.5,1.5 C41.5,1.25 42,1 42.25,1.25 L67.25,9.75 C67.5,9.75 67.75,10.25 67.5,10.5 L51.75,56.5 C51.75,56.75 51.25,57 51,56.75 L36,51.75 C36.5,51.75 36.5,47.25 39.25,46.5 L39.25,46.5 Z" id="Shape" stroke="#000000" stroke-width="0.75"></path>
                    <path d="M49,14.25 C51.5,15.25 54,16.25 56.75,17.25 C56.25,17.5 56,17.75 55.5,18 C54.75,17.75 54.25,17.5 53.5,17.25 C53.5,17.75 53.75,18.25 53.5,18.75 C54.25,19 55,19.25 55.75,19.5 C55.25,19.75 55,20 54.5,20.25 C54,20 53.5,20 53,19.75 C51.75,21.5 50.25,22 48,21.25 L48,21.75 C48.75,23.75 49.25,26 50,28 C50,28.25 50.25,28.25 50,28.5 C49.75,28.5 49.5,28.25 49.25,28.25 C49,28.25 48.5,28 48.5,28 L48.25,27.25 C47.75,25.5 47,23.75 46.5,22 C46.5,21.75 46.25,21.25 46.25,21.25 C46.25,21 46.75,20.5 46.75,20.25 C48.75,21.25 50.75,21.5 51.75,19.75 C50.25,19.25 48.75,18.5 47.25,18 C47.75,17.75 48,17.5 48.5,17.25 C49.75,17.75 51,18.25 52.25,18.75 C52.25,18 51.5,17.25 50.75,16.75 C50,16.5 49.25,16.25 48.5,15.75 C48.25,14.75 48.5,14.5 49,14.25 L49,14.25 Z" id="Shape" fill="#00CCFF"></path>
                    <path d="M78.25,19.25 L68.5,11.25 L67.5,14 L72.5,18.25 L72.25,18.5 C72.25,18.5 68.5,22.25 72,26.75 L57.25,43.25 L54.5,51 L78,24.25 C80.75,22 78.25,19.25 78.25,19.25 L78.25,19.25 Z" id="Shape" stroke="#000000" stroke-width="0.75"></path>
                </g>
            </g>
        </g>
    </g>
</svg>